<svg height="526pt" viewBox="-33 -16 526 526.66602" width="526pt" xmlns="http://www.w3.org/2000/svg"><path d="m229.015625 493.75c-103.265625 0-187.28125-84.542969-187.28125-188.453125v-285.46875c0-8.488281 5.152344-15.808594 13.117187-18.65625 7.914063-2.828125 16.507813-.441406 21.855469 6.089844.1875.230469.367188.472656.527344.722656l67.582031 102.984375h168.402344l67.585938-102.984375c.160156-.25.339843-.492187.523437-.722656 5.351563-6.53125 13.945313-8.914063 21.851563-6.089844 7.96875 2.847656 13.117187 10.167969 13.117187 18.65625v285.46875c0 103.910156-84.015625 188.453125-187.28125 188.453125zm-167.457031-476.722656c-.359375 0-.695313.078125-.984375.183594-.828125.296874-1.8125.988281-1.8125 2.617187v285.46875c0 94.523437 76.378906 171.421875 170.253906 171.421875s170.257813-76.898438 170.257813-171.421875v-285.46875c0-1.628906-.988282-2.320313-1.816407-2.617187-.738281-.269532-1.800781-.363282-2.742187.597656l-69.78125 106.339844c-1.574219 2.398437-4.25 3.84375-7.117188 3.84375h-177.597656c-2.871094 0-5.546875-1.445313-7.117188-3.84375l-69.785156-106.339844c-.574218-.589844-1.191406-.78125-1.757812-.78125zm0 0"/><path d="m305.632812 263.902344c-18.777343 0-34.054687-15.273438-34.054687-34.046875 0-4.699219 3.816406-8.515625 8.515625-8.515625s8.511719 3.816406 8.511719 8.515625c0 9.386719 7.636719 17.023437 17.027343 17.023437 9.386719 0 17.023438-7.636718 17.023438-17.023437 0-4.699219 3.808594-8.515625 8.515625-8.515625 4.699219 0 8.511719 3.816406 8.511719 8.515625 0 18.773437-15.277344 34.046875-34.050782 34.046875zm0 0"/><path d="m152.398438 263.902344c-18.773438 0-34.046876-15.273438-34.046876-34.046875 0-4.699219 3.808594-8.515625 8.515626-8.515625 4.699218 0 8.507812 3.816406 8.507812 8.515625 0 9.386719 7.636719 17.023437 17.023438 17.023437 9.390624 0 17.03125-7.636718 17.03125-17.023437 0-4.699219 3.808593-8.515625 8.507812-8.515625 4.703125 0 8.515625 3.816406 8.515625 8.515625 0 18.773437-15.277344 34.046875-34.054687 34.046875zm0 0"/><path d="m233.207031 341.363281 39.910157-31.273437c5.082031-3.976563 2.265624-12.132813-4.1875-12.132813h-79.828126c-6.449218 0-9.261718 8.15625-4.183593 12.132813l39.914062 31.273437c2.457031 1.929688 5.914063 1.929688 8.375 0zm0 0"/><path d="m229.015625 383.082031c-4.699219 0-8.515625-3.8125-8.515625-8.511719v-34.050781c0-4.699219 3.816406-8.511719 8.515625-8.511719 4.703125 0 8.515625 3.8125 8.515625 8.511719v34.050781c0 4.699219-3.8125 8.511719-8.515625 8.511719zm0 0"/><path d="m454.609375 366.058594c-.140625 0-.289063-.007813-.433594-.023438l-167.183593-17.023437c-2.332032-.238281-4.039063-2.328125-3.800782-4.667969.238282-2.332031 2.289063-4.03125 4.667969-3.796875l167.179687 17.023437c2.335938.238282 4.039063 2.328126 3.804688 4.664063-.226562 2.1875-2.078125 3.824219-4.234375 3.824219zm0 0"/><path d="m414.882812 417.132812c-.488281 0-.984374-.082031-1.46875-.257812l-139.042968-51.078125c-2.207032-.8125-3.335938-3.257813-2.527344-5.464844s3.265625-3.335937 5.460938-2.527343l139.042968 51.078124c2.207032.8125 3.335938 3.257813 2.527344 5.464844-.632812 1.722656-2.257812 2.785156-3.992188 2.785156zm0 0"/><path d="m3.421875 366.058594c-2.15625 0-4.007813-1.628906-4.226563-3.824219-.238281-2.339844 1.464844-4.429687 3.800782-4.664063l167.183594-17.023437c2.402343-.234375 4.425781 1.464844 4.664062 3.796875.234375 2.34375-1.464844 4.433594-3.800781 4.667969l-167.179688 17.023437c-.148437.015625-.296875.023438-.441406.023438zm0 0"/><path d="m43.152344 417.132812c-1.730469 0-3.363282-1.0625-3.996094-2.785156-.808594-2.207031.324219-4.652344 2.527344-5.464844l139.046875-51.078124c2.195312-.808594 4.65625.320312 5.460937 2.527343.8125 2.207031-.316406 4.652344-2.53125 5.464844l-139.042968 51.078125c-.476563.175781-.976563.257812-1.464844.257812zm0 0"/></svg>